#N canvas 683 0 667 669 10;
#X obj -495 -491 -;
#X obj -495 -468 mod 360;
#X obj -495 -533 inlet;
#X obj -454 -533 inlet;
#X obj -495 -328 outlet;
#X msg -325 -388 -90;
#X msg -238 -388 90;
#X obj -325 -411 split 225 270;
#X obj -238 -411 split 90 135;
#X obj -495 -411 split 0 90;
#X obj -426 -411 split 270 365;
#X obj -426 -388 autoscale -90 0;
#X obj -454 -510 t b;
#X connect 0 0 1 0;
#X connect 1 0 7 0;
#X connect 1 0 9 0;
#X connect 1 0 10 0;
#X connect 1 0 8 0;
#X connect 2 0 0 0;
#X connect 3 0 0 1;
#X connect 3 0 12 0;
#X connect 5 0 4 0;
#X connect 6 0 4 0;
#X connect 7 0 5 0;
#X connect 8 0 6 0;
#X connect 9 0 4 0;
#X connect 10 0 11 0;
#X connect 11 0 4 0;
#X connect 12 0 0 0;
