#N canvas 0 8 450 300 10;
#X obj 261 147 > -70;
#X obj 340 150 < 70;
#X obj 264 111 inlet pitch;
#X obj 174 61 inlet yaw;
#X obj 299 179 &&;
#X obj 231 229 spigot;
#X obj 231 260 outlet yaw;
#X floatatom 137 130 5 0 0 0 - - -;
#X connect 0 0 4 0;
#X connect 1 0 4 1;
#X connect 2 0 0 0;
#X connect 2 0 1 0;
#X connect 3 0 5 0;
#X connect 3 0 7 0;
#X connect 4 0 5 1;
#X connect 5 0 6 0;
