#N canvas 16 0 1195 685 12;
#X declare -lib mrpeach;
#X obj -487 -139 unpackOSC;
#X obj -385 249 hsl 150 17 0 0.68 0 0 empty empty performer_camera_horizontal
-2 -6 1 10 -260818 -1 -1 0 1;
#X obj -558 247 hsl 150 17 0 0.68 0 0 empty empty performer_camera_vertical
-2 -6 1 10 -260818 -1 -1 5702 1;
#X obj -583 -192 import mrpeach;
#X obj -487 -94 unpack f f;
#X text -242 -66 performer head horizontal orientation;
#X obj -279 -150 mod 360;
#X floatatom -197 -170 5 0 0 0 - - -;
#X obj -197 -149 mod 360;
#X floatatom -238 37 5 0 0 0 - - -;
#X obj -238 141 difference;
#X floatatom -279 -171 5 0 0 0 - - -;
#X msg -637 344 devices;
#X msg -637 322 close;
#X obj -560 365 arduino 1 9600;
#X obj -561 303 speedlim 80;
#X text -69 -194 Use to align ceiling camera with user;
#X text -449 364 performer arduino runs at 9600 bauds/s;
#X obj -197 -124 s sim_performer;
#X obj -279 -124 s sim_user;
#X obj -238 10 r sim_performer;
#X text -283 -194 Use to simulate orientations;
#X text -198 -81 android on performer body;
#X obj -487 -161 udpreceive 8015;
#X text -361 -162 oculus;
#X obj -487 -117 routeOSC /ori;
#X floatatom -410 -94 5 0 0 0 - - -;
#X text -531 -94 pitch;
#X text -379 -52 yaw;
#X floatatom -402 -12 5 0 0 0 - - -;
#X obj -220 59 r adjust_ceiling;
#X obj -238 88 -;
#X floatatom -238 113 5 0 0 0 - - -;
#X obj -406 -33 map 180 -180 0 360;
#X text -227 248 inhibit yaw if pitch between -70 70;
#X obj -388 214 inhibit_yaw;
#X obj -388 303 speedlim 80;
#X obj -238 165 map 90 -90 0.68 0;
#X floatatom -240 306 5 0 0 0 - - -;
#X floatatom -277 165 5 0 0 0 - - -;
#X msg -561 267 analog 5 \$1;
#X msg -637 366 open 15;
#X msg -389 270 analog 7 \$1;
#X floatatom -614 285 5 0 0 0 - - -;
#X floatatom -559 15 5 0 0 0 - - -;
#X obj -562 215 map -90 90 0.68 0;
#X connect 0 0 25 0;
#X connect 1 0 42 0;
#X connect 2 0 40 0;
#X connect 2 0 43 0;
#X connect 4 0 35 1;
#X connect 4 0 44 0;
#X connect 4 0 45 0;
#X connect 4 1 26 0;
#X connect 4 1 33 0;
#X connect 6 0 19 0;
#X connect 7 0 8 0;
#X connect 8 0 18 0;
#X connect 9 0 31 0;
#X connect 10 0 37 0;
#X connect 11 0 6 0;
#X connect 12 0 14 0;
#X connect 13 0 14 0;
#X connect 15 0 14 0;
#X connect 20 0 9 0;
#X connect 23 0 0 0;
#X connect 25 0 4 0;
#X connect 30 0 31 1;
#X connect 31 0 32 0;
#X connect 32 0 10 0;
#X connect 33 0 29 0;
#X connect 33 0 10 1;
#X connect 35 0 1 0;
#X connect 36 0 14 0;
#X connect 37 0 35 0;
#X connect 37 0 39 0;
#X connect 38 0 36 1;
#X connect 38 0 15 1;
#X connect 40 0 15 0;
#X connect 41 0 14 0;
#X connect 42 0 36 0;
#X connect 45 0 2 0;
