#N canvas 0 0 450 300 10;
#X obj 68 20 loadbang;
#X obj 68 48 f \$1;
#X obj 130 48 f \$2;
#X obj 192 48 f \$3;
#X obj 255 48 f \$4;
#X obj 6 118 outlet;
#X obj 6 21 inlet;
#X obj 6 70 expr (($f1-$f2)*(($f5-$f4)/($f3-$f2)))+$f4;
#X floatatom 6 45 5 0 0 0 - - -;
#X floatatom 6 94 5 0 0 0 - - -;
#X connect 0 0 1 0;
#X connect 0 0 2 0;
#X connect 0 0 3 0;
#X connect 0 0 4 0;
#X connect 1 0 7 1;
#X connect 2 0 7 2;
#X connect 3 0 7 3;
#X connect 4 0 7 4;
#X connect 6 0 8 0;
#X connect 7 0 9 0;
#X connect 8 0 7 0;
#X connect 9 0 5 0;
